<svg width="300" height="260" xmlns="http://www.w3.org/2000/svg" viewBox="0 0 300 260">
  <defs>
    <pattern id="zellige" x="0" y="0" width="300" height="260" patternUnits="userSpaceOnUse">
      <g stroke="currentColor" stroke-width="1" fill="none" stroke-linecap="round" stroke-linejoin="round">

        <!-- Star center 1 at (75, 65) -->
        <circle cx="75" cy="65" r="5"/>

        <!-- 6 petals around star 1 -->
        <path d="M 75 60 Q 72 50 75 40 Q 78 50 75 60 Z"/>
        <path d="M 78.66 62.5 Q 87 57 95.3 51.5 Q 89 57 81 61 Q 78 62 78.66 62.5 Z"/>
        <path d="M 78.66 67.5 Q 87 73 95.3 78.5 Q 89 73 81 69 Q 78 68 78.66 67.5 Z"/>
        <path d="M 75 70 Q 78 80 75 90 Q 72 80 75 70 Z"/>
        <path d="M 71.34 67.5 Q 63 73 54.7 78.5 Q 61 73 69 69 Q 72 68 71.34 67.5 Z"/>
        <path d="M 71.34 62.5 Q 63 57 54.7 51.5 Q 61 57 69 61 Q 72 62 71.34 62.5 Z"/>

        <!-- Connecting geometry around star 1 -->
        <path d="M 75 40 L 95.3 51.5"/>
        <path d="M 95.3 51.5 L 95.3 78.5"/>
        <path d="M 95.3 78.5 L 75 90"/>
        <path d="M 75 90 L 54.7 78.5"/>
        <path d="M 54.7 78.5 L 54.7 51.5"/>
        <path d="M 54.7 51.5 L 75 40"/>

        <!-- Interlocking shapes between petals -->
        <path d="M 81 61 L 89 61 L 95.3 65 L 89 69 L 81 69 Z"/>
        <path d="M 69 61 L 61 61 L 54.7 65 L 61 69 L 69 69 Z"/>
        <path d="M 69 59 L 65 52 L 75 40 L 85 52 L 81 59 Z"/>
        <path d="M 69 71 L 65 78 L 75 90 L 85 78 L 81 71 Z"/>

        <!-- Additional density fills -->
        <path d="M 89 61 Q 92 58 95.3 51.5"/>
        <path d="M 89 69 Q 92 72 95.3 78.5"/>
        <path d="M 61 61 Q 58 58 54.7 51.5"/>
        <path d="M 61 69 Q 58 72 54.7 78.5"/>
        <path d="M 85 52 Q 88 48 95.3 51.5"/>
        <path d="M 85 78 Q 88 82 95.3 78.5"/>
        <path d="M 65 52 Q 62 48 54.7 51.5"/>
        <path d="M 65 78 Q 62 82 54.7 78.5"/>

        <!-- Star center 2 at (225, 65) -->
        <circle cx="225" cy="65" r="5"/>

        <path d="M 225 60 Q 222 50 225 40 Q 228 50 225 60 Z"/>
        <path d="M 228.66 62.5 Q 237 57 245.3 51.5 Q 239 57 231 61 Q 228 62 228.66 62.5 Z"/>
        <path d="M 228.66 67.5 Q 237 73 245.3 78.5 Q 239 73 231 69 Q 228 68 228.66 67.5 Z"/>
        <path d="M 225 70 Q 228 80 225 90 Q 222 80 225 70 Z"/>
        <path d="M 221.34 67.5 Q 213 73 204.7 78.5 Q 211 73 219 69 Q 222 68 221.34 67.5 Z"/>
        <path d="M 221.34 62.5 Q 213 57 204.7 51.5 Q 211 57 219 61 Q 222 62 221.34 62.5 Z"/>

        <path d="M 225 40 L 245.3 51.5"/>
        <path d="M 245.3 51.5 L 245.3 78.5"/>
        <path d="M 245.3 78.5 L 225 90"/>
        <path d="M 225 90 L 204.7 78.5"/>
        <path d="M 204.7 78.5 L 204.7 51.5"/>
        <path d="M 204.7 51.5 L 225 40"/>

        <path d="M 231 61 L 239 61 L 245.3 65 L 239 69 L 231 69 Z"/>
        <path d="M 219 61 L 211 61 L 204.7 65 L 211 69 L 219 69 Z"/>
        <path d="M 219 59 L 215 52 L 225 40 L 235 52 L 231 59 Z"/>
        <path d="M 219 71 L 215 78 L 225 90 L 235 78 L 231 71 Z"/>

        <path d="M 239 61 Q 242 58 245.3 51.5"/>
        <path d="M 239 69 Q 242 72 245.3 78.5"/>
        <path d="M 211 61 Q 208 58 204.7 51.5"/>
        <path d="M 211 69 Q 208 72 204.7 78.5"/>
        <path d="M 235 52 Q 238 48 245.3 51.5"/>
        <path d="M 235 78 Q 238 82 245.3 78.5"/>
        <path d="M 215 52 Q 212 48 204.7 51.5"/>
        <path d="M 215 78 Q 212 82 204.7 78.5"/>

        <!-- Star center 3 at (150, 152.5) -->
        <circle cx="150" cy="152.5" r="5"/>

        <path d="M 150 147.5 Q 147 137.5 150 127.5 Q 153 137.5 150 147.5 Z"/>
        <path d="M 153.66 150 Q 162 144.5 170.3 139 Q 164 144.5 156 148.5 Q 153 149.5 153.66 150 Z"/>
        <path d="M 153.66 155 Q 162 160.5 170.3 166 Q 164 160.5 156 156.5 Q 153 155.5 153.66 155 Z"/>
        <path d="M 150 157.5 Q 153 167.5 150 177.5 Q 147 167.5 150 157.5 Z"/>
        <path d="M 146.34 155 Q 138 160.5 129.7 166 Q 136 160.5 144 156.5 Q 147 155.5 146.34 155 Z"/>
        <path d="M 146.34 150 Q 138 144.5 129.7 139 Q 136 144.5 144 148.5 Q 147 149.5 146.34 150 Z"/>

        <path d="M 150 127.5 L 170.3 139"/>
        <path d="M 170.3 139 L 170.3 166"/>
        <path d="M 170.3 166 L 150 177.5"/>
        <path d="M 150 177.5 L 129.7 166"/>
        <path d="M 129.7 166 L 129.7 139"/>
        <path d="M 129.7 139 L 150 127.5"/>

        <path d="M 156 148.5 L 164 148.5 L 170.3 152.5 L 164 156.5 L 156 156.5 Z"/>
        <path d="M 144 148.5 L 136 148.5 L 129.7 152.5 L 136 156.5 L 144 156.5 Z"/>
        <path d="M 144 146.5 L 140 139.5 L 150 127.5 L 160 139.5 L 156 146.5 Z"/>
        <path d="M 144 158.5 L 140 165.5 L 150 177.5 L 160 165.5 L 156 158.5 Z"/>

        <path d="M 164 148.5 Q 167 145.5 170.3 139"/>
        <path d="M 164 156.5 Q 167 159.5 170.3 166"/>
        <path d="M 136 148.5 Q 133 145.5 129.7 139"/>
        <path d="M 136 156.5 Q 133 159.5 129.7 166"/>
        <path d="M 160 139.5 Q 163 135.5 170.3 139"/>
        <path d="M 160 165.5 Q 163 169.5 170.3 166"/>
        <path d="M 140 139.5 Q 137 135.5 129.7 139"/>
        <path d="M 140 165.5 Q 137 169.5 129.7 166"/>

        <!-- Connecting bridges between stars -->
        <path d="M 95.3 65 L 129.7 65"/>
        <path d="M 170.3 65 L 204.7 65"/>
        <path d="M 95.3 51.5 L 115 65 L 95.3 78.5"/>
        <path d="M 204.7 51.5 L 185 65 L 204.7 78.5"/>
        <path d="M 95.3 78.5 L 129.7 139"/>
        <path d="M 95.3 51.5 L 129.7 139"/>
        <path d="M 204.7 78.5 L 170.3 139"/>
        <path d="M 204.7 51.5 L 170.3 139"/>

        <!-- Fill remaining spaces with small shapes -->
        <path d="M 115 65 L 129.7 65 L 120 78.5 Z"/>
        <path d="M 185 65 L 170.3 65 L 180 78.5 Z"/>
        <path d="M 115 65 L 120 51.5 L 129.7 65 Z"/>
        <path d="M 185 65 L 180 51.5 L 170.3 65 Z"/>

        <path d="M 120 51.5 Q 118 55 115 65"/>
        <path d="M 120 78.5 Q 118 75 115 65"/>
        <path d="M 180 51.5 Q 182 55 185 65"/>
        <path d="M 180 78.5 Q 182 75 185 65"/>

        <!-- Edge repeats for seamless tiling - LEFT -->
        <g transform="translate(-150, -87.5)">
          <circle cx="150" cy="152.5" r="5"/>
          <path d="M 153.66 150 Q 162 144.5 170.3 139 Q 164 144.5 156 148.5 Q 153 149.5 153.66 150 Z"/>
          <path d="M 153.66 155 Q 162 160.5 170.3 166 Q 164 160.5 156 156.5 Q 153 155.5 153.66 155 Z"/>
          <path d="M 170.3 139 L 170.3 166"/>
          <path d="M 156 148.5 L 164 148.5 L 170.3 152.5 L 164 156.5 L 156 156.5 Z"/>
        </g>

        <!-- Edge repeats for seamless tiling - RIGHT -->
        <g transform="translate(150, -87.5)">
          <circle cx="150" cy="152.5" r="5"/>
          <path d="M 146.34 155 Q 138 160.5 129.7 166 Q 136 160.5 144 156.5 Q 147 155.5 146.34 155 Z"/>
          <path d="M 146.34 150 Q 138 144.5 129.7 139 Q 136 144.5 144 148.5 Q 147 149.5 146.34 150 Z"/>
          <path d="M 129.7 166 L 129.7 139"/>
          <path d="M 144 148.5 L 136 148.5 L 129.7 152.5 L 136 156.5 L 144 156.5 Z"/>
        </g>

        <!-- Edge repeats - TOP -->
        <g transform="translate(-75, -130)">
          <circle cx="75" cy="65" r="5"/>
          <path d="M 75 70 Q 78 80 75 90 Q 72 80 75 70 Z"/>
          <path d="M 71.34 67.5 Q 63 73 54.7 78.5 Q 61 73 69 69 Q 72 68 71.34 67.5 Z"/>
          <path d="M 78.66 67.5 Q 87 73 95.3 78.5 Q 89 73 81 69 Q 78 68 78.66 67.5 Z"/>
          <path d="M 95.3 78.5 L 75 90 L 54.7 78.5"/>
          <path d="M 69 71 L 65 78 L 75 90 L 85 78 L 81 71 Z"/>
        </g>

        <g transform="translate(75, -130)">
          <circle cx="75" cy="65" r="5"/>
          <path d="M 75 70 Q 78 80 75 90 Q 72 80 75 70 Z"/>
          <path d="M 71.34 67.5 Q 63 73 54.7 78.5 Q 61 73 69 69 Q 72 68 71.34 67.5 Z"/>
          <path d="M 78.66 67.5 Q 87 73 95.3 78.5 Q 89 73 81 69 Q 78 68 78.66 67.5 Z"/>
          <path d="M 95.3 78.5 L 75 90 L 54.7 78.5"/>
          <path d="M 69 71 L 65 78 L 75 90 L 85 78 L 81 71 Z"/>
        </g>

        <g transform="translate(225, -130)">
          <circle cx="75" cy="65" r="5"/>
          <path d="M 75 70 Q 78 80 75 90 Q 72 80 75 70 Z"/>
          <path d="M 71.34 67.5 Q 63 73 54.7 78.5 Q 61 73 69 69 Q 72 68 71.34 67.5 Z"/>
          <path d="M 78.66 67.5 Q 87 73 95.3 78.5 Q 89 73 81 69 Q 78 68 78.66 67.5 Z"/>
          <path d="M 95.3 78.5 L 75 90 L 54.7 78.5"/>
          <path d="M 69 71 L 65 78 L 75 90 L 85 78 L 81 71 Z"/>
        </g>

        <!-- Edge repeats - BOTTOM -->
        <g transform="translate(-75, 130)">
          <circle cx="75" cy="65" r="5"/>
          <path d="M 75 60 Q 72 50 75 40 Q 78 50 75 60 Z"/>
          <path d="M 78.66 62.5 Q 87 57 95.3 51.5 Q 89 57 81 61 Q 78 62 78.66 62.5 Z"/>
          <path d="M 71.34 62.5 Q 63 57 54.7 51.5 Q 61 57 69 61 Q 72 62 71.34 62.5 Z"/>
          <path d="M 75 40 L 95.3 51.5"/>
          <path d="M 54.7 51.5 L 75 40"/>
          <path d="M 69 59 L 65 52 L 75 40 L 85 52 L 81 59 Z"/>
        </g>

        <g transform="translate(75, 130)">
          <circle cx="75" cy="65" r="5"/>
          <path d="M 75 60 Q 72 50 75 40 Q 78 50 75 60 Z"/>
          <path d="M 78.66 62.5 Q 87 57 95.3 51.5 Q 89 57 81 61 Q 78 62 78.66 62.5 Z"/>
          <path d="M 71.34 62.5 Q 63 57 54.7 51.5 Q 61 57 69 61 Q 72 62 71.34 62.5 Z"/>
          <path d="M 75 40 L 95.3 51.5"/>
          <path d="M 54.7 51.5 L 75 40"/>
          <path d="M 69 59 L 65 52 L 75 40 L 85 52 L 81 59 Z"/>
        </g>

        <g transform="translate(225, 130)">
          <circle cx="75" cy="65" r="5"/>
          <path d="M 75 60 Q 72 50 75 40 Q 78 50 75 60 Z"/>
          <path d="M 78.66 62.5 Q 87 57 95.3 51.5 Q 89 57 81 61 Q 78 62 78.66 62.5 Z"/>
          <path d="M 71.34 62.5 Q 63 57 54.7 51.5 Q 61 57 69 61 Q 72 62 71.34 62.5 Z"/>
          <path d="M 75 40 L 95.3 51.5"/>
          <path d="M 54.7 51.5 L 75 40"/>
          <path d="M 69 59 L 65 52 L 75 40 L 85 52 L 81 59 Z"/>
        </g>

      </g>
    </pattern>
  </defs>
  <rect width="300" height="260" fill="url(#zellige)"/>
</svg>
